<svg xmlns="http://www.w3.org/2000/svg" width="613.96" height="128.613"><path d="M2127.85 952.699h-196.1c-12.8 0-23.1-10.5-23.1-23.301V652.102c0-68.903-30.1-107.403-121.9-107.403s-121.2 38.5-121.2 107.403v277.296c0 12.903-10.3 23.301-23.1 23.301h-215.9c-12.8 0-23.1-10.5-23.1-23.301V673.602c0-184.301 128.5-251 373.7-251 226.9 0 373.7 66.597 373.7 251v255.796c0 12.903-10.3 23.301-23.1 23.301zM4218.45 535.199c-23.3 0-41.9 3.301-57.1 10.301-28.1 13-43.3 39.301-49.8 83.199-2.8 18.699-4.1 40.403-4.1 65.699 0 117 25.7 157.704 110.9 157.704s110.9-40.801 110.9-157.704c0-116.898-25.7-159.199-110.9-159.199zm0 429.403c-248.2 0-386.2-66.602-386.2-270.204 0-105.296 37.2-174.199 107.2-216.296 34.2-20.602 76.3-34.704 125.8-43.602 45.1-8.102 96-11.898 153.2-11.898 248.2 0 386.2 68.097 386.2 271.699 0 203.597-138 270.301-386.2 270.301M2753.85 681.699V695c102.1 0 193.2 28.102 193.2 128 0 85.199-67.5 129.602-183.6 129.602h-518.8c-12.8 0-23.1-10.5-23.1-23.301V457.699c0-12.898 10.3-23.301 23.1-23.301h221.7c12.8 0 23.1 10.5 23.1 23.301V838h157.9c24.4 0 45.9-18.5 47.5-43 2.1-30.5-18.2-51.699-47.5-51.699h-69.5V635.898h57.7c34.1 0 61.6-27.898 61.6-62.199V457.801c0-12.903 10.3-23.301 23.1-23.301h244.9v105.801c0 111-101.3 141.398-211.5 141.398zM3456.05 548.5h-156.4c-.9 0-1.6.699-1.6 1.602v281.796c0 .903.7 1.602 1.6 1.602h154.4c24 0 45.4-19.199 44.4-43.398-.9-23.403-18.3-39.5-41.8-39.5h-70.2V632.199h70.7c18 0 35.3-10.699 41.2-27.898 10.2-29.5-14.2-55.801-42.3-55.801m93.8 136.301v13.301c121.9 0 225.4 31.898 225.4 132.5 0 91.796-80.8 122.199-189.5 122.199h-531.1c-13.7 0-24.7-11.102-24.7-24.903v-470c0-12.898 10.3-23.296 23.1-23.296h523.2c113.8 0 211.5 36.296 211.5 126.597 0 108.102-113.8 123.602-237.9 123.602M1306.45 952.699H610.352c-12.801 0-23.098-10.5-23.098-23.301V790.602h389.797c7.902 0 11.601-9.704 5.902-15.102L825.152 637.602V458c0-12.898 10.301-23.301 23.102-23.301h220.196c12.8 0 23.1 10.5 23.1 23.301v332.5h237.9v138.898c0 12.903-10.3 23.301-23.1 23.301z" style="fill:#fff;fill-opacity:1;fill-rule:nonzero;stroke:none" transform="matrix(.13333 0 0 -.13333 0 128.613)"/><path d="M414.953 691.102h.098c7.203 6.398 2.801 18.296-6.797 18.296-.703 0-1.203.301-1.902.301H34.551c-4.297 0-8.098-2.699-9.7-6.699L.653 637c-2.5-6.699 2.5-14 9.7-14H93.05c7.101 0 12.101-7.102 9.703-13.898l-87.5-243.801c-3.402-9.5 8.2-17.199 15.598-10.301l7.3 6.398h.2l375.8 328.704s.5.699.801 1" style="fill:#9a9995;fill-opacity:1;fill-rule:nonzero;stroke:none" transform="matrix(.13333 0 0 -.13333 0 128.613)"/><path d="M591.852 691.102h.101c7.199 6.398 2.801 18.296-6.801 18.296-.699 0-1.199.301-1.898.301H211.352c-4.301 0-8.098-2.699-9.7-6.699l-24.199-66c-2.5-6.699 2.5-14 9.699-14h82.7c7.101 0 12.101-7.102 9.699-13.898l-87.5-243.903c-3.399-9.5 8.203-17.199 15.601-10.301l7.301 6.403h.199L591.051 690s.5.699.801 1z" style="fill:#d2cec9;fill-opacity:1;fill-rule:nonzero;stroke:none" transform="matrix(.13333 0 0 -.13333 0 128.613)"/><path d="M768.652 691.102h.102c7.199 6.398 2.797 18.296-6.801 18.296-.699 0-1.199.301-1.902.301H388.152c-4.3 0-8.101-2.699-9.699-6.699l-24.199-66c-2.5-6.699 2.5-14 9.699-14h82.699c7.102 0 12.102-7.102 9.7-13.898l-87.5-243.903c-3.399-9.5 8.199-17.199 15.601-10.301l7.301 6.403h.199l375.899 328.801s.5.699.8 1" style="fill:#fff;fill-opacity:1;fill-rule:nonzero;stroke:none" transform="matrix(.13333 0 0 -.13333 0 128.613)"/><path d="M829.953 96.898h35c4.5-22.5 20.899-33.398 49.699-33.398 28.801 0 42.5 8.602 42.5 20.7 0 15.902-22.5 19.8-48.601 23.8-35.199 5.398-76.699 11.398-76.699 47.699 0 28.602 27.699 47.903 72.902 47.903 48.098 0 79.699-20.903 85.398-57.5h-33.199c-4.5 20.699-23.199 32.199-51.301 32.199-28.101 0-39.101-8.602-39.101-19.801 0-16.301 25.703-19.801 53.801-24.301 33.8-5.398 71.3-12.699 71.3-47.199 0-29.102-27.898-48.8-75.601-48.8-47.699 0-79.899 20.902-86.098 58.6zM1149.65 103.5c0 26.602-15.4 42-39.1 42s-40-15.699-40-42c0-26.3 16.1-42 40-42s39.1 15.7 39.1 42m-112 62h32.9v-21.602c10.7 15.704 27.9 24.301 48.6 24.301 37.7 0 63.3-25.398 63.3-64.5 0-39.097-26.1-64.898-63.3-64.898-20.7 0-37.9 8.597-48.6 24.097V0h-32.9zM1337.85 103.699c0 26.602-15.9 42-39.5 42s-39.3-15.398-39.3-42c0-26.597 16.1-42.199 39.3-42.199s39.5 15.398 39.5 42.199m-111.7-.5c0 40.199 30 65.801 72.2 65.801s72.4-25.699 72.4-65.801c0-40.097-29.5-65.199-72.4-65.199s-72.2 25.7-72.2 65.199M1415.95 165.5h32.9v-22.699c9.5 16.097 24.5 25.199 44.7 25.199 1.4 0 2.1 0 3.2-.199v-28.602c-3.4.5-6.8.699-10.2.699-15.9 0-30.7-6.398-37.7-18.398V41.602h-32.9v124zM1574.65 73.7V142.3h-36.1V165.5h36.1v25.699h32.5V165.5h45.2v-23.199h-45.2V78.699c0-9.3 5.2-13.597 17-13.597h28.2V41.5h-42.7c-23.8 0-35 11.102-35 32.2M1691.55 85.3h31.3c4.3-16.6 17.7-25.198 37.5-25.198s30.2 6.296 30.2 15.199c0 11.597-16.8 14.5-36.3 17.5-27.7 4.097-61.1 8.398-61.1 37.199 0 22.699 22.2 38.801 59 38.801s62.9-16.301 69.3-45h-30.7c-5.2 15.699-18.2 22.898-38.4 22.898-18.2 0-27.2-6.097-27.2-13.801 0-10.199 14.8-13.398 32.7-16.097 28.2-4.102 64.7-7.699 64.7-38.403 0-22.898-23.4-40.199-61.5-40.199s-63.3 15.903-69.5 47zM2043.55 137.699c20.2 9.102 29.3 16.602 29.3 27.199 0 9.301-8.6 16.602-23.4 16.602-13.6 0-22.9-7.5-22.9-18.801 0-6.301 3.4-13.199 12.7-21.301l4.3-3.597zm-1.8-76.199c12.5 0 24.1 3.898 34.5 11.602l-42.5 35.597c-17.3-8.199-23.6-15.898-23.6-26.3 0-12.7 12.5-20.899 31.6-20.899m-65.6 19c0 19.102 12.5 31.102 39.1 43.801-14.8 12.898-20.7 25.199-20.7 37.199 0 23.199 19.8 42.199 55.4 42.199 31.1 0 53.8-15 53.8-37 0-19.301-13.8-32-40.9-44.699l33.8-28.2c8.6 11.598 16.3 26.302 23.2 43.802h34.1c-11.4-26.102-22.7-46.301-35.4-61.801l42-34.5h-46.5l-16.8 14.097c-17-12-36.1-17.5-59.3-17.5-34.7 0-61.8 15.903-61.8 42.5zM2347.55 174.5v-47.898h59.3c17.9 0 28.1 8.199 28.1 23.796 0 15.602-10.2 24.102-28.1 24.102zm-34.5 25.898h96.3c37 0 59.9-18.597 59.9-49.699 0-31.097-22.9-49.5-59.5-49.5h-62.2V41.5h-34.5zM2540.05 117.5h73.1c-4.8 18.199-18.4 28.801-36.6 28.801s-32-10.699-36.6-28.801zm-34-14.301c0 39.699 30.2 65.801 70.8 65.801s69.9-25 69.9-67.199V99.5h-108.3c1.4-24.3 16.3-38.602 38.4-38.602 17.7 0 30.7 9.301 36.1 26.102h32c-7.3-30-32.7-49-68.3-49-41.1 0-70.6 25.7-70.6 65.199M2691.95 165.5h32.9v-22.699c9.5 16.097 24.5 25.199 44.7 25.199 1.4 0 2.1 0 3.2-.199v-28.602c-3.4.5-6.8.699-10.2.699-15.9 0-30.7-6.398-37.7-18.398V41.602h-32.9v124zM2848.65 142.301h-34.1V165.5h34.1v9.5c0 22.699 10.2 33.102 36.3 33.102h37v-21.801h-27c-10 0-14.1-3.903-14.1-12.5v-8.403h41.1v-23.199h-41.1v-100.8h-32.2V142.3M3069.15 103.699c0 26.602-15.9 42-39.5 42s-39.3-15.398-39.3-42c0-26.597 16.1-42.199 39.3-42.199s39.5 15.398 39.5 42.199m-111.7-.5c0 40.199 30 65.801 72.2 65.801s72.4-25.699 72.4-65.801c0-40.097-29.5-65.199-72.4-65.199s-72.2 25.7-72.2 65.199M3147.25 165.5h32.9v-22.699c9.5 16.097 24.5 25.199 44.7 25.199 1.4 0 2 0 3.2-.199v-28.602c-3.4.5-6.8.699-10.2.699-15.9 0-30.6-6.398-37.7-18.398V41.602h-32.9v124zM3272.85 165.5h32.9v-17.301c10.2 12.5 25.4 20 43.6 20 19.3 0 34.7-8.199 42.9-22.199 11.4 13.801 27.9 22.199 48.6 22.199 30.9 0 51.3-19.301 51.3-49.301V41.5h-32.7v72.699c0 20-12.5 30.199-30.2 30.199-12.7 0-23.6-5.398-31.3-14.097a59 59 0 0 0 1.1-11.403V41.5h-32.9v72.699c0 20-11.8 30.199-28.6 30.199-13.6 0-25.2-6.398-31.8-15.699V41.5h-32.9zM3593.15 59.602c15 0 31.3 5.699 40.6 15.699v29.5c-6.8-5-17.7-7.301-29.7-10-19.1-4.301-35.2-7.5-35.2-20.2 0-9.5 9.1-15 24.3-15m-56.5 14.097c0 28.403 34.5 34.102 64.9 40.602 20.2 4.301 32 8.199 32 17.301 0 9.097-9.5 14.796-27 14.796-19.5 0-32.2-9.5-36.1-24.296h-30.9c5.4 27.199 31.3 46.5 67.9 46.5s58.8-16.102 58.8-46.5V41.5h-32.5v16.102C3621.95 45.3 3604.95 39 3585.15 39c-30 0-48.6 13.898-48.6 34.7zM3714.45 165.5h32.9v-17c10.4 12.5 26.1 19.699 45 19.699 31.6 0 52.9-19.301 52.9-49.301V41.5h-32.9v72.199c0 20.199-12.9 30.699-31.6 30.699-14.1 0-26.3-6.398-33.4-16.097v-86.7h-32.9v124.001zM3889.95 103.199c0 40.403 30 65.801 71.3 65.801 37 0 64.5-20.699 69.5-54h-31.8c-3.9 19.5-18.2 30.699-37.7 30.699-22.5 0-38.4-15.398-38.4-42 0-26.597 15.9-42.199 38.4-42.199 20 0 34.5 11.602 37.9 32h31.6c-4.3-34.3-31.3-55.398-69.5-55.398-41.8 0-71.3 25.199-71.3 65.199zM4107.65 117.5h73.1c-4.8 18.199-18.4 28.801-36.6 28.801s-32-10.699-36.6-28.801zm-34-14.301c0 39.699 30.2 65.801 70.8 65.801s69.9-25 69.9-67.199V99.5h-108.3c1.4-24.3 16.3-38.602 38.4-38.602 17.7 0 30.6 9.301 36.1 26.102h32c-7.3-30-32.7-49-68.3-49-41.1 0-70.6 25.7-70.6 65.199" style="fill:#d2cec9;fill-opacity:1;fill-rule:nonzero;stroke:none" transform="matrix(.13333 0 0 -.13333 0 128.613)"/></svg>